<svg width="271" height="71" viewBox="0 0 271 71" fill="none" xmlns="http://www.w3.org/2000/svg">
<path d="M0 70.0565L23.6654 29.2552L30.1867 40.8691C31.7175 43.5796 32.6545 46.5818 32.9361 49.6785C33.3792 54.9257 32.3226 62.2423 24.597 66.9354C21.1701 68.9953 17.2391 70.0753 13.2358 70.0565H0ZM80.7553 69.706L40.5367 0L26.4602 24.3247L42.809 52.8449C42.809 52.8449 54.1702 72.8611 80.7553 69.6495V69.706Z" fill="url(#paint0_radial_2143_14)"/>
<path d="M78 47.1371L89.076 22.4252H94.7521L105.853 47.1371H99.8255L90.7336 25.3126H93.0066L83.8896 47.1371H78ZM83.538 41.8372L85.0701 37.4998H97.8414L99.3985 41.8372H83.538Z" fill="#3E3F44"/>
<path d="M105.941 47.1371L117.017 22.4252H122.693L133.794 47.1371H127.754L118.675 25.3126H120.948L111.831 47.1371H105.941ZM111.479 41.8372L112.999 37.4998H125.72L127.289 41.8372H111.479Z" fill="#3E3F44"/>
<path d="M136.381 47.137V22.4252H146.993C149.873 22.2489 152.724 23.0899 155.042 24.8001C155.996 25.6059 156.751 26.6189 157.25 27.7609C157.748 28.9029 157.977 30.1436 157.918 31.3875C157.982 33.0597 157.545 34.713 156.662 36.1373C155.739 37.5071 154.428 38.573 152.895 39.1997C151.071 39.9392 149.113 40.2966 147.143 40.2497H139.609L142.12 37.7498V47.137H136.381ZM142.133 38.3873L139.621 35.6998H146.855C148.278 35.8082 149.692 35.3996 150.835 34.5499C151.672 33.7055 152.141 32.5672 152.141 31.3812C152.141 30.1952 151.672 29.0569 150.835 28.2125C149.685 27.3777 148.274 26.9788 146.855 27.0876H139.533L142.045 24.3627L142.133 38.3873ZM152.179 47.137L145.976 38.1748H152.091L158.37 47.137H152.179Z" fill="#3E3F44"/>
<path d="M174.519 47.562C172.659 47.5829 170.811 47.2608 169.069 46.612C167.46 46.0107 165.988 45.0972 164.737 43.9246C163.524 42.7756 162.559 41.3936 161.899 39.8622C160.559 36.606 160.559 32.9563 161.899 29.7C162.56 28.1632 163.535 26.7798 164.762 25.6376C166.014 24.4731 167.481 23.5606 169.082 22.9502C172.573 21.6833 176.402 21.6833 179.894 22.9502C181.485 23.558 182.94 24.4711 184.176 25.6376C185.428 26.807 186.422 28.2237 187.092 29.7971C187.762 31.3706 188.095 33.066 188.069 34.7749C188.081 36.5312 187.73 38.2712 187.039 39.8872C186.372 41.4171 185.398 42.7952 184.176 43.9371C182.939 45.0997 181.484 46.0086 179.894 46.612C178.178 47.2598 176.355 47.582 174.519 47.562ZM174.519 42.6871C175.568 42.6985 176.608 42.5075 177.583 42.1247C178.525 41.7627 179.38 41.2093 180.095 40.4997C180.81 39.7873 181.369 38.9364 181.74 37.9998C182.139 36.9762 182.335 35.8853 182.318 34.7874C182.333 33.6897 182.137 32.5992 181.74 31.575C181.367 30.6424 180.812 29.7927 180.108 29.075C179.396 28.3616 178.54 27.8076 177.596 27.4501C176.611 27.0695 175.563 26.8786 174.507 26.8876C173.454 26.8762 172.41 27.0672 171.43 27.4501C170.489 27.814 169.634 28.3671 168.918 29.075C168.206 29.7887 167.646 30.6393 167.273 31.575C166.486 33.6405 166.486 35.9217 167.273 37.9873C167.641 38.9225 168.196 39.7732 168.906 40.4872C169.615 41.2033 170.472 41.7578 171.418 42.1122C172.393 42.4962 173.433 42.6914 174.482 42.6871H174.519Z" fill="#3E3F44"/>
<path d="M192.389 47.1371V22.4252H198.141V47.1371H192.389ZM197.714 36.9998V32.1625H209.857V37.0498L197.714 36.9998ZM209.418 47.1371V22.4252H215.169V47.1371H209.418Z" fill="#3E3F44"/>
<path d="M217.793 47.1371L228.857 22.4252H234.533L245.647 47.1371H239.606L230.527 25.3126H232.8L223.671 47.1371H217.793ZM223.331 41.8372L224.851 37.4998H237.622L239.179 41.8372H223.331Z" fill="#3E3F44"/>
<path d="M248.234 47.1371V22.4252H252.981L267.623 40.2122H265.313V22.4252H270.989V47.1371H266.279L251.587 29.3375H253.897V47.1371H248.234Z" fill="#3E3F44"/>
<path d="M116.314 57.3749V56.9374L116.841 56.6875C116.948 56.6293 117.032 56.5368 117.08 56.425L119.114 51.3251L119.704 50.1376H120.759L123.271 56.45C123.29 56.5051 123.32 56.5559 123.359 56.6C123.372 56.6244 123.389 56.6458 123.411 56.663C123.433 56.6802 123.458 56.6928 123.484 56.7L124.037 56.9374V57.3749H120.948V56.9374L121.776 56.6125L120.106 52.3876L119.93 51.7251H119.817L117.946 56.5875L118.788 56.9374V57.3749H116.314ZM118.449 55.075L118.775 54.2376H120.91L121.224 55.075H118.449Z" fill="#3E3F44"/>
<path d="M130.09 57.0999V55H130.818L131.019 55.9625C131.03 56.0277 131.066 56.0862 131.12 56.125C131.169 56.1695 131.224 56.2073 131.283 56.2375C131.399 56.3126 131.521 56.3794 131.647 56.4375C131.808 56.517 131.976 56.5798 132.149 56.6249C132.315 56.6832 132.489 56.7128 132.664 56.7125C133.069 56.7298 133.47 56.6299 133.82 56.425C133.954 56.3419 134.065 56.2259 134.142 56.0881C134.219 55.9503 134.259 55.7952 134.259 55.6375C134.269 55.5144 134.25 55.3907 134.204 55.276C134.158 55.1612 134.087 55.0582 133.995 54.975C133.779 54.813 133.542 54.6787 133.292 54.575L132.426 54.275L131.597 54C131.218 53.8494 130.882 53.6091 130.617 53.3001C130.359 52.9681 130.226 52.5569 130.241 52.1376C130.233 51.7345 130.366 51.3412 130.617 51.0251C130.877 50.6963 131.219 50.4418 131.609 50.2876C132.03 50.1108 132.483 50.0214 132.94 50.0251C133.225 50.0065 133.51 50.0065 133.794 50.0251L134.598 50.1501L135.301 50.2876V52.2751H134.573L134.372 51.3626C134.352 51.3047 134.318 51.253 134.272 51.2126L134.133 51.1126C134.051 51.0566 133.963 51.0104 133.87 50.9751C133.74 50.9181 133.606 50.8721 133.468 50.8376C133.312 50.7976 133.152 50.7766 132.991 50.7751C132.63 50.7463 132.27 50.8435 131.974 51.0501C131.869 51.1184 131.782 51.2109 131.721 51.3197C131.66 51.4285 131.626 51.5504 131.622 51.6751C131.62 51.9015 131.695 52.1218 131.835 52.3001C132.063 52.5311 132.349 52.6954 132.664 52.7751L133.455 53.0376C133.719 53.125 134.008 53.225 134.309 53.35C134.554 53.4474 134.785 53.5733 135 53.7251C135.21 53.8844 135.385 54.0842 135.515 54.3125C135.654 54.5783 135.724 54.8752 135.716 55.175C135.716 55.575 135.598 55.9662 135.377 56.3C135.129 56.6688 134.78 56.9594 134.372 57.1374C133.82 57.3673 133.224 57.474 132.627 57.4499C132.362 57.4457 132.098 57.4249 131.835 57.3874L130.944 57.2124L130.09 57.0999Z" fill="#3E3F44"/>
<path d="M142.346 57.0999V55H143.075L143.275 55.9625C143.286 56.0277 143.322 56.0862 143.376 56.125C143.425 56.1695 143.48 56.2073 143.539 56.2375C143.656 56.3126 143.777 56.3794 143.903 56.4375C144.064 56.517 144.232 56.5798 144.406 56.6249C144.571 56.6832 144.745 56.7128 144.921 56.7125C145.325 56.7298 145.727 56.6299 146.076 56.425C146.21 56.3419 146.322 56.2259 146.398 56.0881C146.475 55.9503 146.516 55.7952 146.515 55.6375C146.525 55.5144 146.506 55.3907 146.46 55.276C146.415 55.1612 146.343 55.0582 146.252 54.975C146.035 54.813 145.799 54.6787 145.548 54.575L144.682 54.275L143.853 54C143.474 53.8494 143.138 53.6091 142.874 53.3001C142.616 52.9681 142.482 52.5569 142.497 52.1376C142.489 51.7345 142.622 51.3412 142.874 51.0251C143.133 50.6963 143.475 50.4418 143.866 50.2876C144.287 50.1108 144.74 50.0214 145.197 50.0251C145.481 50.0065 145.766 50.0065 146.051 50.0251L146.854 50.1501L147.558 50.2876V52.2751H146.829L146.628 51.3626C146.609 51.3047 146.574 51.253 146.528 51.2126L146.39 51.1126C146.308 51.0566 146.219 51.0104 146.126 50.9751C145.996 50.9181 145.862 50.8721 145.724 50.8376C145.568 50.7976 145.408 50.7766 145.247 50.7751C144.886 50.7463 144.527 50.8435 144.23 51.0501C144.125 51.1184 144.038 51.2109 143.977 51.3197C143.916 51.4285 143.882 51.5504 143.878 51.6751C143.876 51.9015 143.952 52.1218 144.092 52.3001C144.319 52.5311 144.606 52.6954 144.921 52.7751L145.712 53.0376C145.975 53.125 146.264 53.225 146.566 53.35C146.81 53.4474 147.042 53.5733 147.256 53.7251C147.466 53.8844 147.641 54.0842 147.771 54.3125C147.906 54.5795 147.971 54.8763 147.96 55.175C147.964 55.5738 147.851 55.9652 147.633 56.3C147.385 56.6688 147.037 56.9594 146.628 57.1374C146.076 57.3673 145.481 57.474 144.883 57.4499C144.618 57.4457 144.354 57.4249 144.092 57.3874L143.2 57.2124L142.346 57.0999Z" fill="#3E3F44"/>
<path d="M158.106 57.5C157.421 57.5214 156.742 57.3664 156.135 57.05C155.596 56.7729 155.157 56.3361 154.879 55.8C154.577 55.1772 154.431 54.4912 154.452 53.8001C154.44 53.1285 154.591 52.4638 154.891 51.8626C155.169 51.3099 155.606 50.8527 156.147 50.5502C156.739 50.215 157.413 50.0505 158.094 50.0752C158.805 50.0432 159.51 50.2122 160.128 50.5627C160.673 50.8667 161.111 51.329 161.384 51.8876C161.656 52.4879 161.789 53.1416 161.773 53.8001C161.772 54.2706 161.7 54.7382 161.56 55.1875C161.434 55.6433 161.216 56.0687 160.919 56.4375C160.611 56.8012 160.225 57.0917 159.789 57.2874C159.249 57.4755 158.676 57.548 158.106 57.5ZM158.182 56.725C158.576 56.7415 158.963 56.6174 159.274 56.375C159.583 56.1158 159.81 55.7727 159.927 55.3875C160.087 54.9168 160.164 54.4219 160.153 53.9251C160.167 53.3616 160.086 52.7997 159.915 52.2626C159.796 51.8442 159.556 51.4702 159.224 51.1876C158.864 50.916 158.418 50.7828 157.968 50.8126C157.558 50.7939 157.155 50.9276 156.838 51.1876C156.545 51.459 156.332 51.8047 156.223 52.1876C156.082 52.6408 156.014 53.1133 156.022 53.5876C156.011 54.15 156.087 54.7108 156.248 55.25C156.363 55.6732 156.604 56.0521 156.938 56.3375C157.284 56.6305 157.728 56.7823 158.182 56.7625V56.725Z" fill="#3E3F44"/>
<path d="M174.218 55.725H174.582V56.4625C174.381 56.6125 174.143 56.775 173.866 56.9499C173.572 57.1196 173.261 57.2579 172.937 57.3625C172.598 57.4792 172.241 57.5384 171.882 57.5374C171.214 57.552 170.553 57.3972 169.961 57.0875C169.432 56.7975 168.996 56.3641 168.705 55.8375C168.383 55.2207 168.223 54.5326 168.241 53.8375C168.225 53.1452 168.39 52.4607 168.718 51.8501C169.037 51.3239 169.493 50.8924 170.036 50.6001C170.62 50.292 171.272 50.1371 171.933 50.1501C172.223 50.1478 172.512 50.1687 172.799 50.2127L173.728 50.3501L174.469 50.5001V52.4626H173.753L173.54 51.4626C173.544 51.4214 173.538 51.3798 173.52 51.3423C173.502 51.3048 173.474 51.2729 173.439 51.2501L173.301 51.1501C173.118 51.0537 172.924 50.9782 172.724 50.9251C172.508 50.862 172.283 50.8325 172.058 50.8376C171.754 50.8235 171.45 50.8754 171.169 50.9898C170.887 51.1042 170.633 51.2784 170.426 51.5001C169.974 52.0849 169.755 52.8147 169.81 53.55C169.757 54.3394 169.993 55.1213 170.476 55.75C170.708 56.0035 170.995 56.2024 171.314 56.3321C171.633 56.4618 171.978 56.5192 172.322 56.5C172.601 56.5046 172.879 56.4536 173.138 56.3499C173.364 56.2672 173.579 56.1582 173.779 56.025L174.218 55.725Z" fill="#3E3F44"/>
<path d="M181.087 57.3749V56.9374L181.929 56.6375C181.982 56.6222 182.03 56.5918 182.067 56.55C182.085 56.5016 182.085 56.4483 182.067 56.4V51.2501C182.086 51.202 182.086 51.1482 182.067 51.1001H181.941L181.1 50.7876V50.3501H184.616V50.7876L183.762 51.1001H183.636C183.617 51.1482 183.617 51.202 183.636 51.2501V56.45C183.615 56.502 183.615 56.5605 183.636 56.6125L183.762 56.6875L184.616 56.9875V57.425L181.087 57.3749Z" fill="#3E3F44"/>
<path d="M190.631 57.3749V56.9374L191.159 56.6875C191.269 56.63 191.357 56.5377 191.41 56.425L193.432 51.3251L194.022 50.1376H195.089L197.601 56.45C197.625 56.5026 197.655 56.5528 197.689 56.6C197.722 56.6476 197.771 56.6828 197.827 56.7L198.367 56.9374V57.3749H195.328V56.9374L196.157 56.6125L194.474 52.3876L194.298 51.7251H194.185L192.276 56.5875L193.118 56.9374V57.3749H190.631ZM192.778 55.075L193.105 54.2376H195.24L195.541 55.075H192.778Z" fill="#3E3F44"/>
<path d="M205.273 57.3749V56.9374L206.102 56.6375C206.154 56.6187 206.201 56.5889 206.24 56.55C206.259 56.5016 206.259 56.4483 206.24 56.4V51.0376H204.721C204.677 51.0202 204.627 51.0202 204.583 51.0376C204.541 51.0722 204.514 51.1214 204.507 51.1751L204.306 52.2376H203.578V50.1876H210.359V52.2376H209.631L209.43 51.1751C209.428 51.1468 209.418 51.1195 209.403 51.0955C209.388 51.0716 209.367 51.0517 209.342 51.0376C209.322 51.0294 209.301 51.0251 209.279 51.0251C209.258 51.0251 209.236 51.0294 209.217 51.0376H207.697V56.4C207.675 56.452 207.675 56.5104 207.697 56.5625L207.823 56.6375L208.664 56.9374V57.3749H205.273Z" fill="#3E3F44"/>
<path d="M216.764 57.3749V56.9374L217.568 56.6375L217.693 56.5625C217.71 56.5095 217.71 56.4529 217.693 56.4V51.2501C217.71 51.2057 217.71 51.157 217.693 51.1126C217.66 51.0763 217.616 51.0503 217.568 51.0376L216.764 50.7251V50.2877H222.855V52.2376H222.126L221.913 51.2876C221.902 51.2378 221.881 51.1909 221.85 51.1501C221.801 51.1374 221.749 51.1374 221.699 51.1501H219.188V53.3626H220.569C220.614 53.3788 220.663 53.3788 220.707 53.3626C220.743 53.3182 220.768 53.2672 220.783 53.2126L220.984 52.4501H221.586V55H220.984L220.783 54.25C220.792 54.2004 220.792 54.1496 220.783 54.1C220.734 54.0854 220.681 54.0854 220.632 54.1H219.251V56.6H222.126C222.171 56.6152 222.22 56.6152 222.264 56.6C222.301 56.5616 222.327 56.5142 222.34 56.4625L222.553 55.4125H223.269V57.4624L216.764 57.3749Z" fill="#3E3F44"/>
<path d="M229.95 57.0999V55H230.678L230.892 55.9625C230.895 55.994 230.904 56.0247 230.919 56.0526C230.934 56.0805 230.955 56.1051 230.979 56.125L231.143 56.2375L231.519 56.4375C231.677 56.5149 231.84 56.5776 232.009 56.6249C232.175 56.6832 232.349 56.7128 232.524 56.7124C232.933 56.7293 233.338 56.6296 233.692 56.425C233.825 56.3413 233.934 56.2248 234.009 56.0869C234.084 55.949 234.122 55.7942 234.119 55.6375C234.128 55.5144 234.11 55.3907 234.064 55.2759C234.018 55.1612 233.947 55.0582 233.855 54.975C233.64 54.8104 233.404 54.6758 233.152 54.575L232.285 54.275L231.469 54C231.084 53.8549 230.742 53.6139 230.477 53.3001C230.219 52.9681 230.086 52.5569 230.1 52.1376C230.092 51.7345 230.226 51.3412 230.477 51.0251C230.736 50.6962 231.079 50.4418 231.469 50.2876C231.895 50.1108 232.352 50.0214 232.813 50.0251C233.093 50.0064 233.374 50.0064 233.654 50.0251L234.471 50.1501L235.161 50.2876V52.2751H234.433L234.232 51.3626C234.212 51.3075 234.183 51.2566 234.144 51.2126L234.006 51.1126L233.742 50.9751C233.612 50.9199 233.477 50.874 233.34 50.8376C233.184 50.7984 233.024 50.7774 232.863 50.7751C232.498 50.7465 232.135 50.8436 231.833 51.0501C231.731 51.1206 231.646 51.2136 231.585 51.3219C231.524 51.4303 231.488 51.5511 231.482 51.6751C231.48 51.9015 231.555 52.1218 231.695 52.3001C231.927 52.5258 232.212 52.6893 232.524 52.7751L233.328 53.0375L234.182 53.35C234.421 53.4503 234.648 53.576 234.86 53.725C235.076 53.8775 235.252 54.0789 235.375 54.3125C235.52 54.5762 235.589 54.8746 235.576 55.175C235.574 55.5729 235.461 55.9625 235.249 56.3C234.991 56.6644 234.64 56.9535 234.232 57.1374C233.676 57.3889 233.071 57.5128 232.461 57.4999C232.192 57.4954 231.924 57.4745 231.658 57.4374L230.766 57.2624L229.95 57.0999Z" fill="#3E3F44"/>
<defs>
<radialGradient id="paint0_radial_2143_14" cx="0" cy="0" r="1" gradientUnits="userSpaceOnUse" gradientTransform="translate(40.3777 35) scale(37.8555 37.6801)">
<stop stop-color="#0055A0"/>
<stop offset="1" stop-color="#071E37"/>
</radialGradient>
</defs>
</svg>
